<?xml version="1.0" standalone="no"?>
<!DOCTYPE svg PUBLIC "-//W3C//DTD SVG 20010904//EN"
 "http://www.w3.org/TR/2001/REC-SVG-20010904/DTD/svg10.dtd">
<svg version="1.0" xmlns="http://www.w3.org/2000/svg"
 width="60.000000px" height="60.000000px" viewBox="0 0 500.000000 500.000000"
 preserveAspectRatio="xMidYMid meet">

<g transform="translate(0.000000,500.000000) scale(0.100000,-0.100000)"
fill="#fefefe" stroke="none">
<path d="M3969 3600 c-50 -9 -133 -42 -142 -57 -3 -5 8 -30 25 -56 l30 -46 41
20 c22 12 66 24 98 26 54 5 60 4 88 -25 74 -73 7 -152 -129 -152 l-60 0 0 -55
0 -55 53 0 c140 -1 205 -58 166 -144 -26 -57 -153 -74 -264 -36 -32 11 -59 20
-59 20 -1 0 -2 -24 -4 -54 -3 -67 4 -73 109 -94 66 -13 95 -14 154 -5 143 20
214 80 223 186 8 95 -34 151 -132 178 l-39 10 51 24 c142 66 133 259 -14 303
-56 16 -142 22 -195 12z"/>
<path d="M1475 3359 c-187 -19 -319 -101 -384 -239 -26 -54 -26 -59 -31 -345
-6 -283 -6 -291 -30 -339 -39 -78 -134 -126 -250 -126 l-40 0 0 -88 0 -88 77
-12 c121 -19 182 -56 216 -132 19 -41 21 -71 27 -335 5 -288 5 -290 32 -347
35 -74 104 -143 181 -178 65 -30 191 -60 252 -60 l35 0 0 89 0 88 -62 7 c-110
11 -194 71 -217 153 -6 21 -11 137 -11 264 0 234 -9 318 -40 379 -35 68 -113
124 -208 149 -23 7 -42 15 -42 19 0 4 27 15 61 25 105 31 165 82 204 177 16
39 20 83 24 325 7 304 8 311 68 366 40 38 82 57 157 71 l66 13 0 87 c0 49 -1
87 -2 87 -2 -1 -39 -5 -83 -10z"/>
<path d="M3120 3279 l0 -86 52 -7 c113 -15 205 -81 227 -163 6 -21 11 -133 11
-253 0 -118 5 -244 11 -280 20 -128 96 -212 221 -247 32 -9 57 -21 55 -26 -2
-6 -23 -15 -48 -21 -70 -19 -138 -57 -170 -97 -57 -72 -61 -99 -68 -409 -7
-315 -8 -319 -75 -378 -39 -34 -119 -62 -178 -62 l-38 0 0 -91 0 -92 77 7
c154 14 288 78 353 167 66 92 72 125 79 444 7 306 10 323 58 367 31 29 109 58
186 71 l72 12 0 85 0 85 -72 6 c-99 9 -173 45 -210 101 l-28 43 -6 290 c-6
309 -11 341 -64 424 -47 76 -146 144 -245 171 -25 7 -80 15 -122 19 l-78 7 0
-87z"/>
<path d="M2372 2999 c-214 -27 -400 -157 -489 -339 -23 -47 -49 -113 -58 -147
-37 -149 -38 -377 0 -525 59 -232 219 -397 439 -453 133 -33 355 -28 506 13
l65 17 3 73 c2 39 1 72 -1 72 -1 0 -45 -10 -97 -22 -74 -17 -126 -22 -240 -22
-129 0 -152 2 -205 23 -82 33 -122 59 -177 118 -99 107 -140 237 -141 448 -2
211 42 343 148 454 149 156 381 193 635 100 33 -12 62 -20 64 -18 2 2 18 33
36 68 37 74 40 70 -70 105 -126 40 -279 53 -418 35z"/>
</g>
</svg>
